<?xml version="1.0" encoding="utf-8"?>
<!-- Generator: Adobe Illustrator 22.1.0, SVG Export Plug-In . SVG Version: 6.00 Build 0)  -->
<svg version="1.1" id="Layer_1" xmlns="http://www.w3.org/2000/svg" xmlns:xlink="http://www.w3.org/1999/xlink" x="0px" y="0px"
	 viewBox="0 0 595.3 841.9" style="enable-background:new 0 0 595.3 841.9;" xml:space="preserve">
<style type="text/css">
	.st0{fill:#0B414A;}
	.st1{fill:#FFFFFF;}
</style>
<g>
	<path class="st0" d="M67.8,417.1c0-6,2.4-11.9,6.6-16.2c2.1-2.2,4.6-3.9,7.4-5.1c2.8-1.2,5.8-1.8,8.8-1.9
		c6.1-0.1,12.2,2.4,16.5,6.7c4.4,4.3,7,10.3,7,16.5c0.1,6.2-2.4,12.3-6.7,16.7c-2.2,2.2-4.8,4-7.7,5.2c-2.9,1.2-6,1.8-9.1,1.8
		c-3.1,0-6.2-0.7-9-2c-2.8-1.3-5.3-3.1-7.4-5.3C70,429.1,67.7,423.1,67.8,417.1z M68,417.1c0,3,0.7,5.9,1.9,8.6
		c1.2,2.7,3,5.1,5.1,7.1c4.3,4,10,6.1,15.7,6c5.7,0,11.3-2.4,15.3-6.3c4.1-4,6.5-9.6,6.5-15.3c0.1-5.7-2.2-11.5-6.3-15.6
		c-4-4.1-9.8-6.6-15.6-6.6c-5.8-0.1-11.7,2.2-15.9,6.3c-2.1,2.1-3.8,4.5-5,7.3C68.6,411.2,68,414.2,68,417.1z"/>
</g>
<g>
	<line class="st0" x1="90.6" y1="412.4" x2="90.6" y2="398"/>
	<path class="st0" d="M90.5,412.4c-0.2-1.2-0.3-2.4-0.4-3.6c-0.1-1.2-0.2-2.4-0.3-3.6c-0.1-1.2-0.3-2.4-0.2-3.6
		c0.1-1.2,0.3-2.4,0.9-3.6h0.2c0.6,1.2,0.8,2.4,0.9,3.6c0.1,1.2-0.1,2.4-0.2,3.6c-0.1,1.2-0.2,2.4-0.3,3.6c-0.1,1.2-0.2,2.4-0.4,3.6
		H90.5z"/>
</g>
<g>
	<circle class="st0" cx="90.6" cy="417.1" r="2.2"/>
	<path class="st0" d="M88.3,417.1c0-0.6,0.2-1.2,0.6-1.7c0.4-0.5,1-0.9,1.7-1c0.7-0.1,1.4,0.2,2,0.7c0.6,0.5,0.9,1.2,1,2
		c0,0.8-0.2,1.6-0.7,2.2c-0.5,0.6-1.4,1-2.2,0.9c-0.8,0-1.6-0.6-1.9-1.3C88.3,418.4,88.3,417.7,88.3,417.1z M88.5,417.1
		c0,0.6,0.4,1,0.9,1.2c0.5,0.1,0.9,0.1,1.2,0c0.3-0.1,0.6-0.2,0.8-0.3c0.3-0.2,0.5-0.5,0.5-0.8c0.1-0.7-0.5-1.6-1.4-1.7
		c-0.4-0.1-0.9,0-1.4,0.3C88.7,416,88.4,416.6,88.5,417.1z"/>
</g>
<g>
	<line class="st0" x1="95.3" y1="417" x2="109.7" y2="417"/>
	<path class="st0" d="M95.3,416.9c1.2-0.2,2.4-0.3,3.6-0.4c1.2-0.1,2.4-0.2,3.6-0.3c1.2-0.1,2.4-0.3,3.6-0.2
		c1.2,0.1,2.4,0.3,3.6,0.9v0.2c-1.2,0.6-2.4,0.8-3.6,0.9c-1.2,0.1-2.4-0.1-3.6-0.2c-1.2-0.1-2.4-0.2-3.6-0.3
		c-1.2-0.1-2.4-0.2-3.6-0.4V416.9z"/>
</g>
<g>
	<line class="st0" x1="70.2" y1="417" x2="84.6" y2="417"/>
	<path class="st0" d="M70.2,416.9c1.2-0.2,2.4-0.3,3.6-0.4c1.2-0.1,2.4-0.2,3.6-0.3c1.2-0.1,2.4-0.3,3.6-0.2
		c1.2,0.1,2.4,0.3,3.6,0.9v0.2c-1.2,0.6-2.4,0.8-3.6,0.9c-1.2,0.1-2.4-0.1-3.6-0.2c-1.2-0.1-2.4-0.2-3.6-0.3
		c-1.2-0.1-2.4-0.2-3.6-0.4V416.9z"/>
</g>
<g>
	<line class="st0" x1="90.6" y1="436.3" x2="90.6" y2="421.9"/>
	<path class="st0" d="M90.5,436.3c-0.2-1.2-0.3-2.4-0.4-3.6c-0.1-1.2-0.2-2.4-0.3-3.6c-0.1-1.2-0.3-2.4-0.2-3.6
		c0.1-1.2,0.3-2.4,0.9-3.6h0.2c0.6,1.2,0.8,2.4,0.9,3.6c0.1,1.2-0.1,2.4-0.2,3.6c-0.1,1.2-0.2,2.4-0.3,3.6c-0.1,1.2-0.2,2.4-0.4,3.6
		H90.5z"/>
</g>
<g>
	<line class="st1" x1="94.3" y1="414.1" x2="104.4" y2="404"/>
	<path class="st0" d="M94.2,414.1c0.7-1,1.5-1.9,2.3-2.8c0.8-0.9,1.5-1.8,2.3-2.8c0.8-0.9,1.4-1.9,2.4-2.7c0.9-0.8,1.9-1.4,3.2-1.9
		l0.1,0.1c-0.5,1.2-1.2,2.2-1.9,3.2c-0.7,1-1.8,1.6-2.7,2.4c-0.9,0.8-1.8,1.6-2.8,2.3c-0.9,0.8-1.9,1.5-2.8,2.3L94.2,414.1z"/>
</g>
<g>
	<line class="st0" x1="94.4" y1="420.8" x2="104.5" y2="430.9"/>
	<path class="st0" d="M94.4,420.7c1,0.7,1.9,1.5,2.8,2.3c0.9,0.8,1.8,1.5,2.8,2.3c0.9,0.8,1.9,1.4,2.7,2.4c0.8,0.9,1.4,1.9,1.9,3.2
		l-0.1,0.1c-1.2-0.5-2.2-1.2-3.2-1.9c-1-0.7-1.6-1.8-2.4-2.7c-0.8-0.9-1.6-1.8-2.3-2.8c-0.8-0.9-1.5-1.9-2.3-2.8L94.4,420.7z"/>
</g>
<g>
	<line class="st0" x1="76.6" y1="403" x2="86.8" y2="413.1"/>
	<path class="st0" d="M76.7,402.9c1,0.7,1.9,1.5,2.8,2.3c0.9,0.8,1.8,1.5,2.8,2.3c0.9,0.8,1.9,1.4,2.7,2.4c0.8,0.9,1.4,1.9,1.9,3.2
		l-0.1,0.1c-1.2-0.5-2.2-1.2-3.2-1.9c-1-0.7-1.6-1.8-2.4-2.7c-0.8-0.9-1.6-1.8-2.3-2.8c-0.8-0.9-1.5-1.9-2.3-2.8L76.7,402.9z"/>
</g>
<g>
	<line class="st0" x1="77.4" y1="431" x2="87.5" y2="420.9"/>
	<path class="st0" d="M77.3,431c0.7-1,1.5-1.9,2.3-2.8c0.8-0.9,1.5-1.8,2.3-2.8c0.8-0.9,1.4-1.9,2.4-2.7c0.9-0.8,1.9-1.4,3.2-1.9
		l0.1,0.1c-0.5,1.2-1.2,2.2-1.9,3.2c-0.7,1-1.8,1.6-2.7,2.4c-0.9,0.8-1.8,1.6-2.8,2.3c-0.9,0.8-1.9,1.5-2.8,2.3L77.3,431z"/>
</g>
</svg>
