<?xml version="1.0" encoding="utf-8"?>
<!-- Generator: Adobe Illustrator 22.1.0, SVG Export Plug-In . SVG Version: 6.00 Build 0)  -->
<svg version="1.1" id="Capa_1" xmlns="http://www.w3.org/2000/svg" xmlns:xlink="http://www.w3.org/1999/xlink" x="0px" y="0px"
	 viewBox="0 0 31.1 31.1" style="enable-background:new 0 0 31.1 31.1;" xml:space="preserve">
<style type="text/css">
	.st0{fill:#F8F8F8;}
</style>
<g>
	<g>
		<path class="st0" d="M15.5,31.1C7,31.1,0,24.1,0,15.5C0,7,7,0,15.5,0s15.5,7,15.5,15.5C31.1,24.1,24.1,31.1,15.5,31.1z M15.5,1.8
			C7.9,1.8,1.8,7.9,1.8,15.5c0,7.6,6.2,13.8,13.8,13.8s13.8-6.2,13.8-13.8C29.3,7.9,23.1,1.8,15.5,1.8z"/>
	</g>
	<g>
		<path class="st0" d="M20.3,21.2c-0.2,0-0.5-0.1-0.6-0.3l-4.8-4.8c-0.2-0.2-0.3-0.4-0.3-0.6V5.5c0-0.5,0.4-0.9,0.9-0.9
			c0.5,0,0.9,0.4,0.9,0.9v9.7l4.5,4.5c0.3,0.3,0.3,0.9,0,1.3C20.7,21.1,20.5,21.2,20.3,21.2z"/>
	</g>
</g>
</svg>
